# xmcd
# 
# Track frame offsets:
#     187
#     16510
#     59470
#     91060
#     119862
#     156110
# 
# Disc length: 2558
# 
# Revision: 0
# Processed by: cddbd v1.5.2PL0 Copyright (c) Steve Scherf et al.
# Submitted via: BonkEnc v1.0.8
# 
DISCID=4209fc06
DTITLE=The Brecker Brothers - Heavy Metal Be Bop
DYEAR=1978
DGENRE=Fusion
TTITLE0=East River
TTITLE1=Inside Out
TTITLE2=Some Skunk Funk
TTITLE3=Sponge
TTITLE4=Funky Sea, Funky Dew
TTITLE5=Squids
EXTD=YEAR: 1978
EXTT0=
EXTT1=
EXTT2=
EXTT3=
EXTT4=
EXTT5=
PLAYORDER=
